<svg xmlns="http://www.w3.org/2000/svg" xmlns:xlink="http://www.w3.org/1999/xlink" version="1.1" width="86.633pt" height="86.633pt" viewBox="0 0 86.633 86.633">
<path transform="matrix(1,0,0,-1,14.572,14.571007)" stroke-width=".79701" stroke-linecap="butt" stroke-miterlimit="10" stroke-linejoin="miter" fill="none" stroke="#424242" d="M14.17339 0C14.17339 7.82784 7.82784 14.17339 0 14.17339-7.82784 14.17339-14.17339 7.82784-14.17339 0-14.17339-7.82784-7.82784-14.17339 0-14.17339 7.82784-14.17339 14.17339-7.82784 14.17339 0ZM0 0"/>
<text xml:space="preserve" transform="matrix(1 0 -0 1 -.0000009536743 86.633)" font-size="9.9626" font-family="CMMI10" font-style="italic"><tspan y="-68.658" x="10.836">A</tspan></text>
<path transform="matrix(1,0,0,-1,14.572,14.571007)" stroke-width=".79701" stroke-linecap="butt" stroke-miterlimit="10" stroke-linejoin="miter" fill="none" stroke="#424242" d="M71.664 0C71.664 7.82784 65.31845 14.17339 57.4906 14.17339 49.66277 14.17339 43.31721 7.82784 43.31721 0 43.31721-7.82784 49.66277-14.17339 57.4906-14.17339 65.31845-14.17339 71.664-7.82784 71.664 0ZM57.4906 0"/>
<text xml:space="preserve" transform="matrix(1 0 -0 1 0 86.633)" font-size="9.9626" font-family="CMMI10" font-style="italic"><tspan y="-68.658" x="68.033">B</tspan></text>
<path transform="matrix(1,0,0,-1,14.572,14.571007)" stroke-width=".79701" stroke-linecap="butt" stroke-miterlimit="10" stroke-linejoin="miter" fill="none" stroke="#424242" d="M71.664-57.4906C71.664-49.66277 65.31845-43.31721 57.4906-43.31721 49.66277-43.31721 43.31721-49.66277 43.31721-57.4906 43.31721-65.31845 49.66277-71.664 57.4906-71.664 65.31845-71.664 71.664-65.31845 71.664-57.4906ZM57.4906-57.4906"/>
<text xml:space="preserve" transform="matrix(1 0 -0 1 .0000076293949 86.63301)" font-size="9.9626" font-family="CMMI10" font-style="italic"><tspan y="-11.168" x="68.145">C</tspan></text>
<path transform="matrix(1,0,0,-1,14.572,14.571007)" stroke-width=".79701" stroke-linecap="butt" stroke-miterlimit="10" stroke-linejoin="miter" fill="none" stroke="#000000" d="M14.5719 0H38.25623"/>
<path transform="matrix(1,0,0,-1,52.828229,14.571007)" d="M4.66248 0C3.28098 .25902 1.0361 1.0361-.51805 1.94269V-1.94269C1.0361-1.0361 3.28098-.25902 4.66248 0"/>
<path transform="matrix(1,0,0,-1,14.572,14.571007)" stroke-width=".79701" stroke-linecap="butt" stroke-miterlimit="10" stroke-linejoin="miter" fill="none" stroke="#000000" d="M57.4906-14.5719V-38.25623"/>
<path transform="matrix(0,1,1,0,72.0626,52.827238)" d="M4.66248 0C3.28098 .25902 1.0361 1.0361-.51805 1.94269V-1.94269C1.0361-1.0361 3.28098-.25902 4.66248 0"/>
<path transform="matrix(1,0,0,-1,14.572,14.571007)" stroke-width=".79701" stroke-linecap="butt" stroke-miterlimit="10" stroke-linejoin="miter" fill="none" stroke="#000000" d="M10.3039-10.3039 43.88983-43.88983"/>
<path transform="matrix(.7071,.7071,.7071,-.7071,58.46182,58.460828)" d="M4.66248 0C3.28098 .25902 1.0361 1.0361-.51805 1.94269V-1.94269C1.0361-1.0361 3.28098-.25902 4.66248 0"/>
</svg>
